<svg height="auto" viewBox="0 0 2000 1000" xmlns="http://www.w3.org/2000/svg"><path d="M0 989.016c21-4.438 63-3.933 105-22.19 42-18.258 63-50.804 105-69.096 42-18.293 63-10.445 105-22.367 42-11.923 63-29.984 105-37.245 42-7.262 63 27.08 105 .938 42-26.14 63-113.639 105-131.642 42-18.004 63 46.431 105 41.626s63-53.318 105-65.651c42-12.334 63 40.78 105 3.984s63-161.563 105-187.965c42-26.402 63 69.363 105 55.954 42-13.409 63-103.244 105-123s63 48.18 105 24.22 63-134.826 105-144.022c42-9.196 63 82.893 105 98.042 42 15.15 63 4.5 105-22.296 42-26.795 63-105.912 105-111.681 42-5.769 63 136.86 105 82.837 42-54.023 84-282.363 105-352.954l5 993.492H0Z" fill="#444cf71a"/><path d="M0 989.016c21-4.438 63-3.933 105-22.19 42-18.258 63-50.804 105-69.096 42-18.293 63-10.445 105-22.367 42-11.923 63-29.984 105-37.245 42-7.262 63 27.08 105 .938 42-26.14 63-113.639 105-131.642 42-18.004 63 46.431 105 41.626s63-53.318 105-65.651c42-12.334 63 40.78 105 3.984s63-161.563 105-187.965c42-26.402 63 69.363 105 55.954 42-13.409 63-103.244 105-123s63 48.18 105 24.22 63-134.826 105-144.022c42-9.196 63 82.893 105 98.042 42 15.15 63 4.5 105-22.296 42-26.795 63-105.912 105-111.681 42-5.769 63 136.86 105 82.837 42-54.023 84-282.363 105-352.954" fill="none" stroke="#444cf7" stroke-width="4"/><g fill="#444cf7"><circle cy="989.016" r="8"/><circle cx="105" cy="966.826" r="8"/><circle cx="210" cy="897.73" r="8"/><circle cx="315" cy="875.363" r="8"/><circle cx="420" cy="838.118" r="8"/><circle cx="525" cy="839.056" r="8"/><circle cx="630" cy="707.414" r="8"/><circle cx="735" cy="749.04" r="8"/><circle cx="840" cy="683.389" r="8"/><circle cx="945" cy="687.373" r="8"/><circle cx="1050" cy="499.408" r="8"/><circle cx="1155" cy="555.362" r="8"/><circle cx="1260" cy="432.362" r="8"/><circle cx="1365" cy="456.582" r="8"/><circle cx="1470" cy="312.56" r="8"/><circle cx="1575" cy="410.602" r="8"/><circle cx="1680" cy="388.306" r="8"/><circle cx="1785" cy="276.625" r="8"/><circle cx="1890" cy="359.462" r="8"/><circle cx="1995" cy="6.508" r="8"/></g></svg>