<svg height="auto" viewBox="0 0 2000 1000" xmlns="http://www.w3.org/2000/svg"><path d="M0 573.864c21-53.124 63-276.786 105-265.618 42 11.167 63 233.657 105 321.457 42 87.8 63 177.412 105 117.545 42-59.868 63-404.623 105-416.883 42-12.261 63 336.226 105 355.58 42 19.353 63-252.997 105-258.813 42-5.816 63 241.197 105 229.734 42-11.463 63-202.273 105-287.05 42-84.777 63-184.322 105-136.837 42 47.485 63 283.662 105 374.264 42 90.602 63 137.737 105 78.745 42-58.99 63-329.712 105-373.7 42-43.99 63 69.64 105 153.756 42 84.117 63 205.86 105 266.825 42 60.965 63 135.573 105 38.003 42-97.57 63-510.802 105-525.853 42-15.05 63 477.024 105 450.6 42-26.425 63-507.696 105-582.721 42-75.025 84 166.078 105 207.597l5 679.505H0Z" fill="#444cf71a"/><path d="M0 573.864c21-53.124 63-276.786 105-265.618 42 11.167 63 233.657 105 321.457 42 87.8 63 177.412 105 117.545 42-59.868 63-404.623 105-416.883 42-12.261 63 336.226 105 355.58 42 19.353 63-252.997 105-258.813 42-5.816 63 241.197 105 229.734 42-11.463 63-202.273 105-287.05 42-84.777 63-184.322 105-136.837 42 47.485 63 283.662 105 374.264 42 90.602 63 137.737 105 78.745 42-58.99 63-329.712 105-373.7 42-43.99 63 69.64 105 153.756 42 84.117 63 205.86 105 266.825 42 60.965 63 135.573 105 38.003 42-97.57 63-510.802 105-525.853 42-15.05 63 477.024 105 450.6 42-26.425 63-507.696 105-582.721 42-75.025 84 166.078 105 207.597" fill="none" stroke="#444cf7" stroke-width="4"/><g fill="#444cf7"><circle cy="573.864" r="8"/><circle cx="105" cy="308.246" r="8"/><circle cx="210" cy="629.703" r="8"/><circle cx="315" cy="747.248" r="8"/><circle cx="420" cy="330.365" r="8"/><circle cx="525" cy="685.945" r="8"/><circle cx="630" cy="427.132" r="8"/><circle cx="735" cy="656.866" r="8"/><circle cx="840" cy="369.816" r="8"/><circle cx="945" cy="232.979" r="8"/><circle cx="1050" cy="607.243" r="8"/><circle cx="1155" cy="685.988" r="8"/><circle cx="1260" cy="312.288" r="8"/><circle cx="1365" cy="466.044" r="8"/><circle cx="1470" cy="732.869" r="8"/><circle cx="1575" cy="770.872" r="8"/><circle cx="1680" cy="245.019" r="8"/><circle cx="1785" cy="695.619" r="8"/><circle cx="1890" cy="112.898" r="8"/><circle cx="1995" cy="320.495" r="8"/></g></svg>