<svg height="auto" viewBox="0 0 2000 1000" xmlns="http://www.w3.org/2000/svg"><path d="M0 993.334c21-7.317 63-19.732 105-36.584 42-16.853 63-29.01 105-47.678 42-18.668 63-22.91 105-45.662s63-62.165 105-68.095 63 33.19 105 38.447c42 5.258 63 13.57 105-12.158 42-25.727 63-74.292 105-116.479s63-78.882 105-94.455c42-15.572 63 17.487 105 16.592 42-.896 63 7.463 105-21.07s63-117.029 105-121.594c42-4.565 63 99.477 105 98.77 42-.708 63-96.168 105-102.307 42-6.14 63 65.656 105 71.61 42 5.955 63-25.97 105-41.84 42-15.868 63-31.298 105-37.505 42-6.207 63 50.572 105 6.47 42-44.1 63-144.705 105-226.978s84-147.508 105-184.385l5 931.567H0Z" fill="#444cf71a"/><path d="M0 993.334c21-7.317 63-19.732 105-36.584 42-16.853 63-29.01 105-47.678 42-18.668 63-22.91 105-45.662s63-62.165 105-68.095 63 33.19 105 38.447c42 5.258 63 13.57 105-12.158 42-25.727 63-74.292 105-116.479s63-78.882 105-94.455c42-15.572 63 17.487 105 16.592 42-.896 63 7.463 105-21.07s63-117.029 105-121.594c42-4.565 63 99.477 105 98.77 42-.708 63-96.168 105-102.307 42-6.14 63 65.656 105 71.61 42 5.955 63-25.97 105-41.84 42-15.868 63-31.298 105-37.505 42-6.207 63 50.572 105 6.47 42-44.1 63-144.705 105-226.978s84-147.508 105-184.385" fill="none" stroke="#444cf7" stroke-width="4"/><g fill="#444cf7"><circle cy="993.334" r="8"/><circle cx="105" cy="956.75" r="8"/><circle cx="210" cy="909.072" r="8"/><circle cx="315" cy="863.41" r="8"/><circle cx="420" cy="795.315" r="8"/><circle cx="525" cy="833.762" r="8"/><circle cx="630" cy="821.604" r="8"/><circle cx="735" cy="705.125" r="8"/><circle cx="840" cy="610.67" r="8"/><circle cx="945" cy="627.262" r="8"/><circle cx="1050" cy="606.192" r="8"/><circle cx="1155" cy="484.598" r="8"/><circle cx="1260" cy="583.367" r="8"/><circle cx="1365" cy="481.061" r="8"/><circle cx="1470" cy="552.672" r="8"/><circle cx="1575" cy="510.832" r="8"/><circle cx="1680" cy="473.326" r="8"/><circle cx="1785" cy="479.797" r="8"/><circle cx="1890" cy="252.818" r="8"/><circle cx="1995" cy="68.433" r="8"/></g></svg>