<svg height="auto" viewBox="0 0 2000 1000" xmlns="http://www.w3.org/2000/svg"><path d="M0 301.662c21 10.636 63 4.616 105 53.178 42 48.563 63 182.011 105 189.634 42 7.623 63-116.143 105-151.52 42-35.377 63 32.86 105-25.366s63-256.468 105-265.764c42-9.295 63 154.653 105 219.287 42 64.634 63 125.578 105 103.886 42-21.692 63-148.765 105-212.346 42-63.582 63-127.613 105-105.562 42 22.052 63 123.857 105 215.82s63 269.564 105 243.997c42-25.567 63-390.086 105-371.832 42 18.253 63 414.845 105 463.1 42 48.254 63-209.394 105-221.828 42-12.433 63 201.933 105 159.661 42-42.272 63-319.105 105-371.021 42-51.917 63 128.258 105 111.438 42-16.82 63-172.03 105-195.536s84 62.403 105 78.003l5 781.109H0Z" fill="#444cf71a"/><path d="M0 301.662c21 10.636 63 4.616 105 53.178 42 48.563 63 182.011 105 189.634 42 7.623 63-116.143 105-151.52 42-35.377 63 32.86 105-25.366s63-256.468 105-265.764c42-9.295 63 154.653 105 219.287 42 64.634 63 125.578 105 103.886 42-21.692 63-148.765 105-212.346 42-63.582 63-127.613 105-105.562 42 22.052 63 123.857 105 215.82s63 269.564 105 243.997c42-25.567 63-390.086 105-371.832 42 18.253 63 414.845 105 463.1 42 48.254 63-209.394 105-221.828 42-12.433 63 201.933 105 159.661 42-42.272 63-319.105 105-371.021 42-51.917 63 128.258 105 111.438 42-16.82 63-172.03 105-195.536s84 62.403 105 78.003" fill="none" stroke="#444cf7" stroke-width="4"/><g fill="#444cf7"><circle cy="301.662" r="8"/><circle cx="105" cy="354.84" r="8"/><circle cx="210" cy="544.474" r="8"/><circle cx="315" cy="392.954" r="8"/><circle cx="420" cy="367.588" r="8"/><circle cx="525" cy="101.824" r="8"/><circle cx="630" cy="321.111" r="8"/><circle cx="735" cy="424.997" r="8"/><circle cx="840" cy="212.651" r="8"/><circle cx="945" cy="107.089" r="8"/><circle cx="1050" cy="322.909" r="8"/><circle cx="1155" cy="566.906" r="8"/><circle cx="1260" cy="195.074" r="8"/><circle cx="1365" cy="658.173" r="8"/><circle cx="1470" cy="436.346" r="8"/><circle cx="1575" cy="596.007" r="8"/><circle cx="1680" cy="224.986" r="8"/><circle cx="1785" cy="336.424" r="8"/><circle cx="1890" cy="140.888" r="8"/><circle cx="1995" cy="218.891" r="8"/></g></svg>