<svg height="auto" viewBox="0 0 2000 1000" xmlns="http://www.w3.org/2000/svg"><path d="M0 16.497c21 4.992 63 15.714 105 24.962 42 9.249 63 12.98 105 21.28 42 8.299 63 10.116 105 20.218 42 10.103 63-3.28 105 30.293 42 33.574 63 97.28 105 137.576 42 40.296 63 63.481 105 63.904 42 .423 63-60.512 105-61.79 42-1.278 63 14.879 105 55.4 42 40.523 63 103.616 105 147.21 42 43.595 63 74.525 105 70.765 42-3.76 63-80.364 105-89.563 42-9.2 63 37.295 105 43.567 42 6.27 63 2.927 105-12.211s63-76.747 105-63.477c42 13.269 63 65.667 105 129.824 42 64.157 63 137.988 105 190.962 42 52.974 63 83.445 105 73.91 42-9.537 63-126.165 105-121.59 42 4.575 84 115.57 105 144.463l5 177.8H0Z" fill="#444cf71a"/><path d="M0 16.497c21 4.992 63 15.714 105 24.962 42 9.249 63 12.98 105 21.28 42 8.299 63 10.116 105 20.218 42 10.103 63-3.28 105 30.293 42 33.574 63 97.28 105 137.576 42 40.296 63 63.481 105 63.904 42 .423 63-60.512 105-61.79 42-1.278 63 14.879 105 55.4 42 40.523 63 103.616 105 147.21 42 43.595 63 74.525 105 70.765 42-3.76 63-80.364 105-89.563 42-9.2 63 37.295 105 43.567 42 6.27 63 2.927 105-12.211s63-76.747 105-63.477c42 13.269 63 65.667 105 129.824 42 64.157 63 137.988 105 190.962 42 52.974 63 83.445 105 73.91 42-9.537 63-126.165 105-121.59 42 4.575 84 115.57 105 144.463" fill="none" stroke="#444cf7" stroke-width="4"/><g fill="#444cf7"><circle cy="16.497" r="8"/><circle cx="105" cy="41.459" r="8"/><circle cx="210" cy="62.738" r="8"/><circle cx="315" cy="82.957" r="8"/><circle cx="420" cy="113.25" r="8"/><circle cx="525" cy="250.826" r="8"/><circle cx="630" cy="314.73" r="8"/><circle cx="735" cy="252.94" r="8"/><circle cx="840" cy="308.341" r="8"/><circle cx="945" cy="455.55" r="8"/><circle cx="1050" cy="526.315" r="8"/><circle cx="1155" cy="436.752" r="8"/><circle cx="1260" cy="480.319" r="8"/><circle cx="1365" cy="468.108" r="8"/><circle cx="1470" cy="404.631" r="8"/><circle cx="1575" cy="534.455" r="8"/><circle cx="1680" cy="725.417" r="8"/><circle cx="1785" cy="799.326" r="8"/><circle cx="1890" cy="677.737" r="8"/><circle cx="1995" cy="822.2" r="8"/></g></svg>