<svg height="auto" viewBox="0 0 2000 1000" xmlns="http://www.w3.org/2000/svg"><path d="M0 996.258c21-5.994 63-9.584 105-29.97 42-20.385 63-53.54 105-71.957 42-18.418 63-17.945 105-20.13 42-2.184 63 10.852 105 9.207 42-1.644 63 10.427 105-17.43s63-108.882 105-121.854c42-12.972 63 71.73 105 56.993 42-14.736 63-88.61 105-130.677 42-42.067 63-81.197 105-79.658 42 1.539 63 95.678 105 87.352 42-8.325 63-68.18 105-128.98 42-60.801 63-140.898 105-175.024 42-34.126 63 16.157 105 4.392s63-51.9 105-63.218c42-11.319 63 22.665 105 6.627 42-16.039 63-121.063 105-86.82 42 34.244 63 284.998 105 258.04 42-26.96 63-387.404 105-392.833 42-5.43 84 292.548 105 365.685l5 533.997H0Z" fill="#444cf71a"/><path d="M0 996.258c21-5.994 63-9.584 105-29.97 42-20.385 63-53.54 105-71.957 42-18.418 63-17.945 105-20.13 42-2.184 63 10.852 105 9.207 42-1.644 63 10.427 105-17.43s63-108.882 105-121.854c42-12.972 63 71.73 105 56.993 42-14.736 63-88.61 105-130.677 42-42.067 63-81.197 105-79.658 42 1.539 63 95.678 105 87.352 42-8.325 63-68.18 105-128.98 42-60.801 63-140.898 105-175.024 42-34.126 63 16.157 105 4.392s63-51.9 105-63.218c42-11.319 63 22.665 105 6.627 42-16.039 63-121.063 105-86.82 42 34.244 63 284.998 105 258.04 42-26.96 63-387.404 105-392.833 42-5.43 84 292.548 105 365.685" fill="none" stroke="#444cf7" stroke-width="4"/><g fill="#444cf7"><circle cy="996.258" r="8"/><circle cx="105" cy="966.288" r="8"/><circle cx="210" cy="894.331" r="8"/><circle cx="315" cy="874.201" r="8"/><circle cx="420" cy="883.408" r="8"/><circle cx="525" cy="865.978" r="8"/><circle cx="630" cy="744.124" r="8"/><circle cx="735" cy="801.117" r="8"/><circle cx="840" cy="670.44" r="8"/><circle cx="945" cy="590.782" r="8"/><circle cx="1050" cy="678.134" r="8"/><circle cx="1155" cy="549.154" r="8"/><circle cx="1260" cy="374.13" r="8"/><circle cx="1365" cy="378.522" r="8"/><circle cx="1470" cy="315.304" r="8"/><circle cx="1575" cy="321.931" r="8"/><circle cx="1680" cy="235.112" r="8"/><circle cx="1785" cy="493.15" r="8"/><circle cx="1890" cy="100.318" r="8"/><circle cx="1995" cy="466.003" r="8"/></g></svg>