<svg width="72" height="20" viewBox="0 0 72 20" fill="none" xmlns="http://www.w3.org/2000/svg">
<path d="M1.328 16V4.8H3.92V13.888H9.536V16H1.328ZM10.8083 16V7.392H13.3043V16H10.8083ZM12.0563 6.192C11.5976 6.192 11.2243 6.05867 10.9363 5.792C10.6483 5.52533 10.5043 5.19467 10.5043 4.8C10.5043 4.40533 10.6483 4.07467 10.9363 3.808C11.2243 3.54133 11.5976 3.408 12.0563 3.408C12.5149 3.408 12.8883 3.536 13.1763 3.792C13.4643 4.03733 13.6083 4.35733 13.6083 4.752C13.6083 5.168 13.4643 5.51467 13.1763 5.792C12.8989 6.05867 12.5256 6.192 12.0563 6.192ZM18.5168 16.128C17.7808 16.128 17.0714 16.0427 16.3888 15.872C15.7168 15.6907 15.1834 15.4667 14.7888 15.2L15.6208 13.408C16.0154 13.6533 16.4794 13.856 17.0128 14.016C17.5568 14.1653 18.0901 14.24 18.6128 14.24C19.1888 14.24 19.5941 14.1707 19.8288 14.032C20.0741 13.8933 20.1968 13.7013 20.1968 13.456C20.1968 13.2533 20.1008 13.104 19.9088 13.008C19.7274 12.9013 19.4821 12.8213 19.1727 12.768C18.8634 12.7147 18.5221 12.6613 18.1488 12.608C17.7861 12.5547 17.4181 12.4853 17.0448 12.4C16.6714 12.304 16.3301 12.1653 16.0208 11.984C15.7114 11.8027 15.4608 11.5573 15.2688 11.248C15.0874 10.9387 14.9967 10.5387 14.9967 10.048C14.9967 9.504 15.1514 9.024 15.4608 8.608C15.7808 8.192 16.2394 7.86667 16.8368 7.632C17.4341 7.38667 18.1488 7.264 18.9808 7.264C19.5674 7.264 20.1648 7.328 20.7728 7.456C21.3808 7.584 21.8874 7.77067 22.2928 8.016L21.4608 9.792C21.0448 9.54667 20.6234 9.38133 20.1968 9.296C19.7808 9.2 19.3754 9.152 18.9808 9.152C18.4261 9.152 18.0208 9.22667 17.7648 9.376C17.5088 9.52533 17.3808 9.71733 17.3808 9.952C17.3808 10.1653 17.4714 10.3253 17.6528 10.432C17.8448 10.5387 18.0954 10.624 18.4048 10.688C18.7141 10.752 19.0501 10.8107 19.4128 10.864C19.7861 10.9067 20.1594 10.976 20.5328 11.072C20.9061 11.168 21.2421 11.3067 21.5408 11.488C21.8501 11.6587 22.1008 11.8987 22.2928 12.208C22.4848 12.5067 22.5808 12.9013 22.5808 13.392C22.5808 13.9253 22.4208 14.4 22.1008 14.816C21.7808 15.2213 21.3168 15.5413 20.7088 15.776C20.1114 16.0107 19.3808 16.128 18.5168 16.128ZM27.6408 16.128C26.6274 16.128 25.8381 15.872 25.2728 15.36C24.7074 14.8373 24.4248 14.064 24.4248 13.04V5.488H26.9208V13.008C26.9208 13.3707 27.0168 13.6533 27.2088 13.856C27.4008 14.048 27.6621 14.144 27.9928 14.144C28.3874 14.144 28.7234 14.0373 29.0008 13.824L29.6728 15.584C29.4168 15.7653 29.1074 15.904 28.7448 16C28.3928 16.0853 28.0248 16.128 27.6408 16.128ZM23.0968 9.504V7.584H29.0648V9.504H23.0968ZM35.0803 16.128C34.0989 16.128 33.2349 15.936 32.4883 15.552C31.7523 15.168 31.1816 14.6453 30.7763 13.984C30.3709 13.312 30.1683 12.5493 30.1683 11.696C30.1683 10.832 30.3656 10.0693 30.7603 9.408C31.1656 8.736 31.7149 8.21333 32.4083 7.84C33.1016 7.456 33.8856 7.264 34.7603 7.264C35.6029 7.264 36.3603 7.44533 37.0323 7.808C37.7149 8.16 38.2536 8.672 38.6483 9.344C39.0429 10.0053 39.2403 10.8 39.2403 11.728C39.2403 11.824 39.2349 11.936 39.2243 12.064C39.2136 12.1813 39.2029 12.2933 39.1923 12.4H32.2003V10.944H37.8802L36.9203 11.376C36.9203 10.928 36.8296 10.5387 36.6483 10.208C36.4669 9.87733 36.2163 9.62133 35.8963 9.44C35.5763 9.248 35.2029 9.152 34.7763 9.152C34.3496 9.152 33.9709 9.248 33.6403 9.44C33.3203 9.62133 33.0696 9.88267 32.8883 10.224C32.7069 10.5547 32.6163 10.9493 32.6163 11.408V11.792C32.6163 12.2613 32.7176 12.6773 32.9203 13.04C33.1336 13.392 33.4269 13.664 33.8003 13.856C34.1843 14.0373 34.6323 14.128 35.1443 14.128C35.6029 14.128 36.0029 14.0587 36.3443 13.92C36.6963 13.7813 37.0163 13.5733 37.3043 13.296L38.6323 14.736C38.2376 15.184 37.7416 15.5307 37.1443 15.776C36.5469 16.0107 35.8589 16.128 35.0803 16.128ZM46.134 7.264C46.8167 7.264 47.4247 7.40267 47.958 7.68C48.502 7.94667 48.9287 8.36267 49.238 8.928C49.5473 9.48267 49.702 10.1973 49.702 11.072V16H47.206V11.456C47.206 10.7627 47.0513 10.2507 46.742 9.92C46.4433 9.58933 46.0167 9.424 45.462 9.424C45.0673 9.424 44.71 9.50933 44.39 9.68C44.0807 9.84 43.8353 10.0907 43.654 10.432C43.4833 10.7733 43.398 11.2107 43.398 11.744V16H40.902V7.392H43.286V9.776L42.838 9.056C43.1473 8.48 43.59 8.03733 44.166 7.728C44.742 7.41867 45.398 7.264 46.134 7.264Z" fill="white"/>
<path fill-rule="evenodd" clip-rule="evenodd" d="M67.1091 5.30396L72 10.304L67.1091 15.304L65.7155 13.9642L68.3546 11.2662H59V9.3417H68.3546L65.7155 6.64369L67.1091 5.30396Z" fill="white"/>
</svg>
