<svg width="1920" height="6923" viewBox="0 0 1920 6923" fill="none" xmlns="http://www.w3.org/2000/svg">
<path fill-rule="evenodd" clip-rule="evenodd" d="M500.176 1.87338C500.114 1.27498 499.609 0.820312 499.008 0.820312C498.406 0.820312 497.902 1.27498 497.84 1.87338L496.912 10.8152C496.533 14.4626 493.65 17.3454 490.003 17.724L481.061 18.6523C480.462 18.7144 480.008 19.2187 480.008 19.8203C480.008 20.4219 480.462 20.9262 481.061 20.9884L490.003 21.9166C493.65 22.2952 496.533 25.1781 496.912 28.8254L497.84 37.7673C497.902 38.3657 498.406 38.8203 499.008 38.8203C499.609 38.8203 500.114 38.3656 500.176 37.7673L501.104 28.8254C501.483 25.1781 504.366 22.2952 508.013 21.9166L516.955 20.9884C517.553 20.9262 518.008 20.4219 518.008 19.8203C518.008 19.2187 517.553 18.7144 516.955 18.6523L508.013 17.724C504.366 17.3454 501.483 14.4626 501.104 10.8152L500.176 1.87338Z" fill="#4BE1F4"/>
<path fill-rule="evenodd" clip-rule="evenodd" d="M535.084 71.5265C535.053 71.2273 534.801 71 534.5 71C534.199 71 533.947 71.2273 533.916 71.5265L533.452 75.9975C533.263 77.8211 531.821 79.2626 529.997 79.4519L525.527 79.916C525.227 79.947 525 80.1992 525 80.5C525 80.8008 525.227 81.053 525.527 81.084L529.997 81.5481C531.821 81.7374 533.263 83.1789 533.452 85.0025L533.916 89.4735C533.947 89.7727 534.199 90 534.5 90C534.801 90 535.053 89.7727 535.084 89.4735L535.548 85.0025C535.737 83.1789 537.179 81.7374 539.003 81.5481L543.473 81.084C543.773 81.053 544 80.8008 544 80.5C544 80.1992 543.773 79.947 543.473 79.916L539.003 79.4519C537.179 79.2626 535.737 77.8211 535.548 75.9975L535.084 71.5265Z" fill="#F87388"/>
<path fill-rule="evenodd" clip-rule="evenodd" d="M466.084 55.5265C466.053 55.2273 465.801 55 465.5 55C465.199 55 464.947 55.2273 464.916 55.5265L464.452 59.9975C464.263 61.8211 462.821 63.2626 460.997 63.4519L456.527 63.916C456.227 63.947 456 64.1992 456 64.5C456 64.8008 456.227 65.053 456.527 65.084L460.997 65.5481C462.821 65.7374 464.263 67.1789 464.452 69.0025L464.916 73.4735C464.947 73.7727 465.199 74 465.5 74C465.801 74 466.053 73.7727 466.084 73.4735L466.548 69.0025C466.737 67.1789 468.179 65.7374 470.003 65.5481L474.473 65.084C474.773 65.053 475 64.8008 475 64.5C475 64.1992 474.773 63.947 474.473 63.916L470.003 63.4519C468.179 63.2626 466.737 61.8211 466.548 59.9975L466.084 55.5265Z" fill="#C8D316"/>
<g opacity="0.7" filter="url(#filter0_f_8758_23249)">
<ellipse cx="943" cy="6089.5" rx="263" ry="39.5" fill="#5C9DFF"/>
</g>
<defs>
<filter id="filter0_f_8758_23249" x="-114" y="5256" width="2114" height="1667" filterUnits="userSpaceOnUse" color-interpolation-filters="sRGB">
<feFlood flood-opacity="0" result="BackgroundImageFix"/>
<feBlend mode="normal" in="SourceGraphic" in2="BackgroundImageFix" result="shape"/>
<feGaussianBlur stdDeviation="397" result="effect1_foregroundBlur_8758_23249"/>
</filter>
</defs>
</svg>
