<svg width="76" height="20" viewBox="0 0 76 20" fill="none" xmlns="http://www.w3.org/2000/svg">
<path d="M4.016 16L0.352 4.8H3.04L6.224 14.72H4.88L8.208 4.8H10.608L13.808 14.72H12.512L15.776 4.8H18.256L14.592 16H11.808L8.976 7.296H9.712L6.8 16H4.016ZM24.1664 16V14.32L24.0064 13.952V10.944C24.0064 10.4107 23.841 9.99467 23.5104 9.696C23.1904 9.39733 22.6944 9.248 22.0224 9.248C21.5637 9.248 21.1104 9.32267 20.6624 9.472C20.225 9.61067 19.8517 9.80267 19.5424 10.048L18.6464 8.304C19.1157 7.97333 19.681 7.71733 20.3424 7.536C21.0037 7.35467 21.6757 7.264 22.3584 7.264C23.6704 7.264 24.689 7.57333 25.4144 8.192C26.1397 8.81067 26.5024 9.776 26.5024 11.088V16H24.1664ZM21.5424 16.128C20.8704 16.128 20.2944 16.016 19.8144 15.792C19.3344 15.5573 18.9664 15.2427 18.7104 14.848C18.4544 14.4533 18.3264 14.0107 18.3264 13.52C18.3264 13.008 18.449 12.56 18.6944 12.176C18.9504 11.792 19.3504 11.4933 19.8944 11.28C20.4384 11.056 21.1477 10.944 22.0224 10.944H24.3104V12.4H22.2944C21.7077 12.4 21.3024 12.496 21.0784 12.688C20.865 12.88 20.7584 13.12 20.7584 13.408C20.7584 13.728 20.881 13.984 21.1264 14.176C21.3824 14.3573 21.729 14.448 22.1664 14.448C22.5824 14.448 22.9557 14.352 23.2864 14.16C23.617 13.9573 23.857 13.664 24.0064 13.28L24.3904 14.432C24.209 14.9867 23.8784 15.408 23.3984 15.696C22.9184 15.984 22.2997 16.128 21.5424 16.128ZM32.2814 16.128C31.268 16.128 30.4787 15.872 29.9134 15.36C29.348 14.8373 29.0654 14.064 29.0654 13.04V5.488H31.5614V13.008C31.5614 13.3707 31.6574 13.6533 31.8494 13.856C32.0414 14.048 32.3027 14.144 32.6334 14.144C33.028 14.144 33.364 14.0373 33.6414 13.824L34.3134 15.584C34.0574 15.7653 33.748 15.904 33.3854 16C33.0334 16.0853 32.6654 16.128 32.2814 16.128ZM27.7374 9.504V7.584H33.7054V9.504H27.7374ZM39.6089 16.128C38.6809 16.128 37.8542 15.9413 37.1289 15.568C36.4035 15.184 35.8329 14.656 35.4169 13.984C35.0115 13.312 34.8089 12.5493 34.8089 11.696C34.8089 10.832 35.0115 10.0693 35.4169 9.408C35.8329 8.736 36.4035 8.21333 37.1289 7.84C37.8542 7.456 38.6809 7.264 39.6089 7.264C40.5155 7.264 41.3049 7.456 41.9769 7.84C42.6489 8.21333 43.1449 8.752 43.4649 9.456L41.5289 10.496C41.3049 10.0907 41.0222 9.792 40.6809 9.6C40.3502 9.408 39.9875 9.312 39.5929 9.312C39.1662 9.312 38.7822 9.408 38.4409 9.6C38.0995 9.792 37.8275 10.064 37.6249 10.416C37.4329 10.768 37.3369 11.1947 37.3369 11.696C37.3369 12.1973 37.4329 12.624 37.6249 12.976C37.8275 13.328 38.0995 13.6 38.4409 13.792C38.7822 13.984 39.1662 14.08 39.5929 14.08C39.9875 14.08 40.3502 13.9893 40.6809 13.808C41.0222 13.616 41.3049 13.312 41.5289 12.896L43.4649 13.952C43.1449 14.6453 42.6489 15.184 41.9769 15.568C41.3049 15.9413 40.5155 16.128 39.6089 16.128ZM50.0871 7.264C50.7698 7.264 51.3778 7.40267 51.9111 7.68C52.4551 7.94667 52.8818 8.36267 53.1911 8.928C53.5005 9.48267 53.6551 10.1973 53.6551 11.072V16H51.1591V11.456C51.1591 10.7627 51.0045 10.2507 50.6951 9.92C50.3965 9.58933 49.9698 9.424 49.4151 9.424C49.0205 9.424 48.6631 9.50933 48.3431 9.68C48.0338 9.84 47.7885 10.0907 47.6071 10.432C47.4365 10.7733 47.3511 11.2107 47.3511 11.744V16H44.8551V4.128H47.3511V9.776L46.7911 9.056C47.1005 8.48 47.5431 8.03733 48.1191 7.728C48.6951 7.41867 49.3511 7.264 50.0871 7.264Z" fill="white"/>
<path fill-rule="evenodd" clip-rule="evenodd" d="M71.1091 5.30396L76 10.304L71.1091 15.304L69.7155 13.9642L72.3546 11.2662H63V9.3417H72.3546L69.7155 6.64369L71.1091 5.30396Z" fill="white"/>
</svg>
